<svg width="58" height="58" viewBox="0 0 58 58" fill="none" xmlns="http://www.w3.org/2000/svg">
<path d="M19.43 39.4885C21.8709 33.4227 24.6259 26.4868 35.0417 24.1668C35.0417 24.1668 22.9584 24.1668 19.0434 35.356C19.0434 35.356 16.9167 33.2293 16.9167 30.8127C16.9167 28.396 19.3334 23.2727 25.375 22.0643C27.0909 21.7502 29 21.436 30.885 21.1702C35.6459 20.5418 40.2134 19.8652 41.0834 18.1252C41.0834 18.1252 37.4584 38.6668 24.1667 38.6668C23.7317 38.6668 23.1275 38.5218 22.5475 38.3043L21.4117 41.0835L19.1159 40.286L19.43 39.4885ZM29 9.66683C39.6575 9.66683 48.3334 18.3427 48.3334 29.0002C48.3334 39.6577 39.6575 48.3335 29 48.3335C18.3425 48.3335 9.66671 39.6577 9.66671 29.0002C9.66671 18.3427 18.3425 9.66683 29 9.66683ZM29 4.8335C15.7084 4.8335 4.83337 15.7085 4.83337 29.0002C4.83337 42.2918 15.7084 53.1668 29 53.1668C42.2917 53.1668 53.1667 42.2918 53.1667 29.0002C53.1667 15.7085 42.2917 4.8335 29 4.8335Z" fill="#93CBE5"/>
</svg>
